<svg xmlns="http://www.w3.org/2000/svg" width="24" height="16" viewBox="0 0 24 16">
  <rect width="24" height="16" fill="#b22234" />
  <g fill="#fff">
    <rect y="2" width="24" height="2" />
    <rect y="6" width="24" height="2" />
    <rect y="10" width="24" height="2" />
    <rect y="14" width="24" height="2" />
  </g>
  <rect width="9.6" height="7" fill="#3c3b6e" />
  <g fill="#fff">
    <circle cx="1.2" cy="1.2" r="0.35" />
    <circle cx="3" cy="1.2" r="0.35" />
    <circle cx="4.8" cy="1.2" r="0.35" />
    <circle cx="6.6" cy="1.2" r="0.35" />
    <circle cx="8.4" cy="1.2" r="0.35" />
    <circle cx="2.1" cy="2.3" r="0.35" />
    <circle cx="3.9" cy="2.3" r="0.35" />
    <circle cx="5.7" cy="2.3" r="0.35" />
    <circle cx="7.5" cy="2.3" r="0.35" />
    <circle cx="1.2" cy="3.4" r="0.35" />
    <circle cx="3" cy="3.4" r="0.35" />
    <circle cx="4.8" cy="3.4" r="0.35" />
    <circle cx="6.6" cy="3.4" r="0.35" />
    <circle cx="8.4" cy="3.4" r="0.35" />
    <circle cx="2.1" cy="4.5" r="0.35" />
    <circle cx="3.9" cy="4.5" r="0.35" />
    <circle cx="5.7" cy="4.5" r="0.35" />
    <circle cx="7.5" cy="4.5" r="0.35" />
    <circle cx="1.2" cy="5.6" r="0.35" />
    <circle cx="3" cy="5.6" r="0.35" />
    <circle cx="4.8" cy="5.6" r="0.35" />
    <circle cx="6.6" cy="5.6" r="0.35" />
    <circle cx="8.4" cy="5.6" r="0.35" />
  </g>
</svg>
