<?xml version="1.0" encoding="utf-8"?>
<svg xmlns="http://www.w3.org/2000/svg" width="1024" height="1024" viewBox="0 0 1024 1024">
  <path fill="#fff" d="M0 0h1024v1024H0z"/>
  <path d="M222.06 381.244c21.732-.321 47.072 1.542 57.773 23.803 10.297 21.421 3.571 51.41-15.174 66.132-5.423 4.259-11.203 7.136-17.345 10.162 8.822 17.561 20.472 37.26 30.06 54.742-15.921.151-32.144-.034-48.089-.057-10.722-20.129-22.021-44.936-31.946-65.698.294-5.005 1.229-11.176 1.86-16.232 13.197.018 25.281.884 37.022-5.736 3.985-3.383 6.446-6.541 7.14-11.882 3.11-23.957-30.666-20.456-45.449-19.953-4.87 39.782-8.112 79.652-12.536 119.494l-40.497-.008c3.668-51.781 11.891-102.788 15.712-154.512 20.29-.208 41.32.367 61.469-.255"/>
  <path d="M343.574 409.666c18.574-1.988 27.442 1.79 41.209 13.709q.788-6.251 1.687-12.488l38.589.1c-4.172 26.259-7.138 53.408-10.911 79.758-2.125 14.842-3.574 30.695-6.883 45.273a1641 1641 0 0 0-36.864.002c.066-1.834.28-3.7.46-5.531l.856-8.144c-8.586 7.487-17.628 13.695-29.053 15.451-11.892 1.991-26.449.092-36.335-7.434-28.239-21.501-23.966-69.619-4.837-95.619 11.226-15.258 23.887-22.258 42.082-25.077"/>
  <path fill="#fff" d="M349.841 442.616c4.559-.157 9.482.506 13.7 2.289a22.78 22.78 0 0 1 12.677 13.338c4.229 11.587.286 25.714-7.62 34.769-4.735 5.422-8.857 7.675-15.454 10.204-11.947 1.356-24.948-1.916-27.7-15.007-4.459-21.209 3.17-39.664 24.397-45.593"/>
  <path d="M553.163 380.493q19.91-.117 39.819.204c-3.512 26.624-5.762 53.754-9.696 80.356 5.96-6.41 12.049-14.867 17.529-21.902a866 866 0 0 1 22.881-28.129c15.389-.465 32.113-.122 47.536-.014-8.533 8.776-17.51 20.313-25.704 29.608-8.66 9.824-18.127 20.012-26.008 30.34 7.627 14.806 16.417 28.307 25.451 42.263a1063 1063 0 0 1 13.759 22.283l-48.693-.075a5369 5369 0 0 0-29.076-54.399l-6.083 54.544q-20.352.084-40.703-.069a5415 5415 0 0 1 11.527-94.18c2.355-19.432 4.081-41.914 7.461-60.83"/>
  <path d="M728.117 408.687c3.711-.665 11.281-.18 15.01.453 13.102 2.221 24.411 7.507 32.239 18.543 12.28 17.314 9.685 37.67 6.47 57.337a2889 2889 0 0 0-84.292-.501c1.312 5.68 2.917 11.944 8.008 15.32 15.183 10.069 45.004 4.421 61.834 1.324-1.471 2.901-2.521 5.915-3.662 8.96a1802 1802 0 0 1-8.75 24.194q-2.7.46-5.404.89c-21.94 3.471-53.395 4.768-71.773-8.988-27.726-20.754-21.386-66.471-2.54-90.98 14.41-18.742 30.698-23.57 52.86-26.552"/>
  <path fill="#fff" d="M726.101 440.181c13.468-.635 18.102 6.334 20.888 18.315l-23.739-.016-21.952-.029c5.128-11.644 12.224-16.833 24.803-18.27"/>
  <path d="m815.12 381.566 39.483.021c-.382 8.584-2.204 20.722-3.313 29.471l19.303.232c-.146 9.299-2.727 24.088-4.28 33.219l-19.73-.108c-.777 14.354-4.474 28.751-5.22 43.166-.836 16.15 11.32 14.097 22.839 13.927-1.027 10.244-2.851 20.381-3.854 30.665-.149.567-.512 2.032-.97 2.346-5.522 3.792-24.808 1.743-31.378 1.726-7.656-.546-17.257-3.42-21.855-9.702-9.709-13.266-5.022-32.872-3.148-48.184a2943 2943 0 0 0 3.959-33.89l-16.046-.009c.582-10.272 1.863-23.165 3.804-33.24a533 533 0 0 1 16.58.096c1.945-8.319 2.933-20.927 3.826-29.736"/>
  <path d="M498.944 409.703c11.06-1.194 24.454 2.426 35.092 5.252-1.975 9.329-2.989 25.521-4.226 35.62-17.865-8.364-43.901-11.039-55.547 8.978-6.728 11.563-8.191 34.112 6.024 40.853 13.877 6.582 30.612 1.98 44.446-2.488-1.969 8.701-3.047 21.223-4.04 30.351l-.658 5.723c-22.612 4.79-54.886 4.868-73.792-10.607-26.402-21.611-20.407-64.786-.599-88.791 14.443-17.503 31.445-22.703 53.3-24.891"/>
  <path d="m681.616 557.496 13.544.008c-2.733 22.504-6.248 47.786-7.779 70.355-3.537.139-8.467.609-11.684-.623.167.286-1.027-1.789-.877-1.447-1.317-3.007-7.472 2.639-11.532 3.014-3.755.347-4.759.02-8.685-.644a22.08 22.08 0 0 1-12.39-12.347c-6.973-17.274 5.947-42.432 26.801-37.937 4.008.864 6.399 2.092 10.058 3.888z"/>
  <path fill="#fff" d="M662.588 590.495c18.401.082 18.896 15.39 5.352 24.979-18.695 1.609-18.959-15.823-5.352-24.979"/>
  <path d="M554.6 577.671c7.219-.313 9.131 3.705 13.801 4.3 4.541-4.637 9.529-3.47 15.361-2.854-3.006 14.3-4.728 34.292-6.421 49.269-3.37-.003-9.233.97-12.104-.759-1.429-.86-1.24-2.147-1.481-3.826-3.411 2.424-6.115 4.101-10.271 4.935a18.17 18.17 0 0 1-13.881-2.696c-11.743-8.03-12.152-27.811-3.883-38.554 5.337-6.933 10.689-8.706 18.879-9.815"/>
  <path fill="#fff" d="M554.394 590.456c9.811.248 15.467 7.145 11.563 16.79-2.023 4.999-5.417 6.671-10.063 8.66-9.336-.029-15.017-5.545-12.211-14.927 1.714-5.731 5.754-8.155 10.711-10.523"/>
  <path d="M452.034 577.569c7.79-.282 11.133 1.983 16.755 6.654l.898-5.669c4.329-.08 8.79-.033 13.132-.044-3.333 14.157-4.182 34.915-5.926 49.712-4.362.313-8.953 1.094-12.628-1.266-3.072-2.696-9.708 2.16-14.23 2.012-20.893-.684-25.873-23.996-16.452-39.19 4.67-7.532 10.305-10.036 18.451-12.209"/>
  <path fill="#fff" d="M453.157 590.483c5.023.038 6.105.5 10.497 2.558 5.402 11.816 2.984 16.73-7.763 23.462-8.852.209-15.062-4.8-12.968-14.39 1.195-5.471 5.667-8.882 10.234-11.63"/>
  <path d="M382.137 561.426c4.314-.099 9.1.051 13.45.094-.131 6.284-1.513 15.223-2.324 21.583 38.847-19.761 30.138 23.323 27.045 45.291l-12.889-.285c.139-7.536 1.605-15.907 2.251-23.625.618-5.93-2.513-14.485-7.86-14.532-12.685-.11-13.264 33.046-13.409 38.459l-13.973.017c.143-7.362 1.9-18.697 2.884-26.224a1047 1047 0 0 0 4.825-40.778"/>
  <path d="M616.9 578.114c22.156-.305 18.974 17.137 17.062 33.051-.671 5.586-1.42 11.271-2.137 16.857l-13.28-.133c1.432-8.351 9.7-52.17-11.386-35.464-6.494 9.25-7.235 24.271-8.272 35.457l-13.32.028c2.375-16.289 3.688-32.845 6.142-49.377 2.94.035 9.78-.163 12.271.737.325.965.596 1.827.877 2.806 2.102.196 8.633-3.302 12.043-3.962"/>
  <path d="m327.125 561.494 49.54.012a391 391 0 0 0-1.266 11.625l-18.341-.003c-1.965 11.03-3.503 29.269-4.844 40.753-.386 1.524-1.604 12.503-1.869 14.622a947 947 0 0 1-13.996-.257c3.093-17.818 4.218-36.491 7.361-54.636-5.628-.252-12.581-.093-18.303-.111.724-3.404 1.244-8.449 1.718-12.005"/>
  <path d="M515.665 558.491q6.765.02 13.531.13c-.62 7.556-2.084 16.748-3.01 24.409l-5.324 45.104-13.452-.133c.259-7.373 1.988-18.358 2.903-26.007a1629 1629 0 0 1 5.352-43.503"/>
  <path d="M 492.095 576.139 L 503.979 576.137 C 503.805 579.439 503.483 582.691 502.932 585.966 C 500.589 599.895 499.552 614.304 496.881 628.167 C 493.195 628.337 489.152 628.296 485.433 628.321 C 485.528 621.357 487.223 610.625 488.145 603.447 C 489.171 595.457 490.214 583.797 492.095 576.139" style=""/>
  <ellipse style="stroke: rgb(0, 0, 0);" cx="499.231" cy="566.578" rx="6.333" ry="6.333"/>
</svg>